<svg xmlns="http://www.w3.org/2000/svg" version="1.1" xmlns:xlink="http://www.w3.org/1999/xlink" xmlns:svgjs="http://svgjs.dev/svgjs" width="1000" height="1000" viewBox="0 0 1000 1000"><rect width="1000" height="1000" fill="#000000"></rect><g transform="matrix(0.7,0,0,0.7,150.0000000000001,106.25)"><svg viewBox="0 0 320 360" data-background-color="#471aa0" preserveAspectRatio="xMidYMid meet" height="1125" width="1000" xmlns="http://www.w3.org/2000/svg" xmlns:xlink="http://www.w3.org/1999/xlink"><g id="tight-bounds" transform="matrix(1,0,0,1,0,0)"><svg viewBox="0 0 320 360" height="360" width="320"><g><svg></svg></g><g><svg viewBox="0 0 320 360" height="360" width="320"><g><path xmlns="http://www.w3.org/2000/svg" d="M20.961 227.22l3.726 4.658-1.863-6.056c-0.466-2.795-3.726 0.466-1.863 1.398M25.153 224.425c1.397 2.329 2.795 4.658 2.795 6.987 0 3.261 2.795 4.658 5.123 5.589-3.261-3.726-5.124-13.974-7.918-12.576M204.017 26.929c7.918 0 15.371-0.932 23.756 0.931 20.495 5.124 37.729 15.371 49.374 29.811l32.606 52.169c1.397 13.042 4.192 27.482 3.726 43.319 3.261 0 2.795-4.658 6.521-5.59-3.726 9.316-5.59 20.961-6.521 34.469-2.329-7.453 0-18.632 0.466-24.687-3.261 5.124-5.124 1.397-5.124-0.932 0.466-3.726-1.397-3.261-2.795-4.658-5.124-4.658-8.384-9.782-12.11-17.7 2.329-6.055 2.795-14.905-4.658-19.563-2.329-1.397-5.124-3.726-6.521-7.453-1.863-5.124-5.124-11.179-4.193-19.097 0.466-2.329-6.987 5.124-11.179 1.863-18.166-12.576-36.332-27.016-58.224-39.127-11.645 0-20.029-4.192-24.221-9.316-3.726-4.658-0.932-10.713 4.658-11.179 3.261 0 6.987-0.932 9.782 0.932 0.466-1.863 2.329-4.192 4.657-4.192M157.904 16.215l0.932 0.466c4.658 0.932 6.987 7.453 12.11 5.124 0 3.261 0.466 6.521-0.466 8.85-1.397 3.726-5.59 3.726-8.85 3.726-31.208-1.863-49.374 11.179-68.471 22.358-5.124 3.261-10.713 5.59-14.906 9.782-20.029 18.632-41.921 35.866-47.045 70.335l-4.192 38.195c-0.466 4.192-5.124 8.384-4.192 13.508l3.26 22.824c-3.261-3.261-5.124 0.932-4.192 2.795 0.466 1.397 2.329 6.055 5.124 1.863 3.726 6.987 7.453 20.495 12.576 26.55 15.837 18.632 36.332 35.4 53.101 52.169 4.192-0.932 7.453-0.932 8.384-3.727 1.397 2.795-1.397 5.59-3.726 6.056 7.453 4.658 15.837 8.85 27.016 9.781 14.44 0.932 27.948 3.261 40.524 6.522 6.521-1.863 13.042-2.795 20.029-3.261 2.329 0 3.726-3.726 6.521-4.658l0.466-4.658c2.795 4.192 2.329-1.397 0.466-4.192 3.261 2.795 4.192 5.124 5.589 6.987 0-1.397 3.726-6.521 3.727-0.466l0.931-6.055c1.397-0.932 1.863 5.124 3.261 0.931 1.397-4.192 4.192-0.932 6.987-2.329-0.932 1.863-0.466 5.59 2.794 3.261l3.727-3.261c2.329 5.59 6.055 3.261 7.918 2.329 20.495-13.042 40.99-28.413 60.553-43.784l-0.466 6.055 2.329-7.453c2.329 2.329 4.192 0.466 5.124-0.931 2.795-4.658 6.521-9.316 12.577-13.508-7.453 20.029-16.303 35.866-27.482 48.908l-4.658 5.59c0 3.261-0.932 7.453-4.658 7.918-1.863 0.466-5.59-0.932-8.384 1.863-1.397 1.863 3.261 5.59-0.466 2.795-3.261-2.329-6.521 0-10.248 0.932-2.795 0.932 1.863 3.726 2.795 5.589 0.932 1.863 1.863 3.726 1.398 6.056l-5.124-5.59c-6.055 3.261-9.782 9.316-14.906 13.974-2.329 1.863-1.397 5.124-1.397 7.918-3.261 0-6.987-0.932-8.85 0.932-1.397 1.863-0.932 4.658-0.932 7.453-4.658-0.466-5.124-7.453-9.315-6.056-4.192 0.932-8.85 1.397-12.577 3.727 2.795 5.59-4.658 2.329-3.726 3.26-6.987-4.192-13.042-7.453-20.495-4.658-15.837-5.124-35.4-2.795-49.84-0.931 0-2.329 0.466-4.658-0.466-5.124-0.932 2.329-3.726 1.397-3.26 1.397-8.85-6.055-17.7-9.782-27.016-14.905-8.384 0.932-16.303-3.261-18.632-5.59-6.521-6.055-13.974-2.795-20.029-4.192-13.042-3.261-17.7-16.769-19.098-26.084-0.932-4.658-4.658-6.521-6.055-6.056-6.055-19.563-15.371-37.263-22.824-55.429-1.863-4.658-1.397-9.316-1.397-14.44 2.329 0.932 4.658 0.466 4.192-2.794-2.329-15.371-7.918-27.016-13.974-38.195 3.261-15.837 3.726-34.469 11.179-48.443 6.521-12.576 18.632-19.098 27.016-29.811 2.795-3.726 2.795-8.85 5.59-12.11 9.316-9.316 18.632-19.098 28.879-27.482 4.658-3.726 10.247 0 17.234-1.397 2.329-8.384 11.645-15.837 20.495-13.508 3.726 0.932 11.179-8.85 13.508-9.782 3.726-1.397 1.863 3.726 1.863 6.987 8.85-6.987 20.961-10.713 32.14-14.906" fill="#ffffff" fill-rule="nonzero" stroke="none" stroke-width="1" stroke-linecap="butt" stroke-linejoin="miter" stroke-miterlimit="10" stroke-dasharray="" stroke-dashoffset="0" font-family="none" font-weight="none" font-size="none" text-anchor="none" style="mix-blend-mode: normal" data-fill-palette-color="tertiary"></path></g><g transform="matrix(1,0,0,1,64,164.56656312830958)"><svg viewBox="0 0 192 30.866873743380857" height="30.866873743380857" width="192"><g><svg viewBox="0 0 192 30.866873743380857" height="30.866873743380857" width="192"><g><svg viewBox="0 0 192 30.866873743380857" height="30.866873743380857" width="192"><g><svg viewBox="0 0 192 30.866873743380857" height="30.866873743380857" width="192"><g><svg viewBox="0 0 192 30.866873743380857" height="30.866873743380857" width="192" id="textblock"><g><svg viewBox="0 0 192 17.498981670061102" height="17.498981670061102" width="192"><g transform="matrix(1,0,0,1,0,0)"><svg width="192" viewBox="0 -35.79999923706055 392.7799987792969 35.79999923706055" height="17.498981670061102" data-palette-color="#ffffff"><path d="M44.3-2.15L49.15-2.15 49.15 0 38.4 0 38.4-27.3 26.2-3.05 22.9-3.05 10.75-27.3 10.75 0 0 0 0-2.15 4.85-2.15 4.85-34.95 14.05-34.95 24.6-13 35.15-34.95 44.3-34.95 44.3-2.15ZM78-2.15L84.45-2.15 84.45 0 49.15 0 49.15-2.15 54-2.15 54-34.95 67.6-34.95Q71.15-34.95 73.72-34.1 76.3-33.25 77.55-31.8L77.55-31.8Q79.95-29.1 79.95-25.7L79.95-25.7Q79.95-21.6 77.35-19.6L77.35-19.6Q76.4-18.9 76.05-18.73 75.7-18.55 74.8-18.15L74.8-18.15Q78.05-17.45 79.97-15.23 81.9-13 81.9-9.7L81.9-9.7Q81.9-4.75 78-2.15L78-2.15ZM59.9-15L59.9-5.45 69.15-5.45Q72.4-5.45 74.12-6.48 75.85-7.5 75.85-10.35L75.85-10.35Q75.85-15 68.4-15L68.4-15 59.9-15ZM59.9-29.5L59.9-20.45 67.4-20.45Q73.8-20.45 73.8-24.8L73.8-24.8Q73.8-27.3 72.25-28.4 70.7-29.5 67.45-29.5L67.45-29.5 59.9-29.5ZM84.45-2.15L98.15-2.15 98.15 0 84.45 0 84.45-2.15ZM123.39-2.15L129.64-2.15 129.64 0 98.14 0 98.14-2.15 104.54-2.15Q102.14-3.4 100.14-5.25L100.14-5.25 103.84-9.7Q109.14-5.1 114.84-5.1L114.84-5.1Q117.69-5.1 119.37-6.33 121.04-7.55 121.04-9.58 121.04-11.6 119.47-12.73 117.89-13.85 114.04-14.78 110.19-15.7 108.19-16.48 106.19-17.25 104.64-18.5L104.64-18.5Q101.54-20.85 101.54-25.7 101.54-30.55 105.07-33.18 108.59-35.8 113.79-35.8L113.79-35.8Q117.14-35.8 120.44-34.7 123.74-33.6 126.14-31.6L126.14-31.6 122.99-27.15Q121.44-28.55 118.79-29.45 116.14-30.35 113.57-30.35 110.99-30.35 109.34-29.3 107.69-28.25 107.69-26.13 107.69-24 109.34-22.88 110.99-21.75 116.37-20.45 121.74-19.15 124.47-16.8 127.19-14.45 127.19-10.2L127.19-10.2Q127.19-5.05 123.39-2.15L123.39-2.15ZM160.19-2.15L171.64-2.15 171.64 0 129.64 0 129.64-2.15 141.09-2.15Q136.99-4.5 134.62-8.6 132.24-12.7 132.24-17.75L132.24-17.75Q132.24-25.45 137.54-30.63 142.84-35.8 150.64-35.8 158.44-35.8 163.74-30.63 169.04-25.45 169.04-17.75L169.04-17.75Q169.04-12.75 166.67-8.6 164.29-4.45 160.19-2.15L160.19-2.15ZM159.42-26.7Q155.84-30.4 150.64-30.4 145.44-30.4 141.87-26.7 138.29-23 138.29-17.73 138.29-12.45 141.87-8.75 145.44-5.05 150.64-5.05 155.84-5.05 159.42-8.75 162.99-12.45 162.99-17.73 162.99-23 159.42-26.7ZM182.39-2.15L201.84-2.15 201.84 0 171.64 0 171.64-2.15 176.49-2.15 176.49-34.95 199.79-34.95 199.74-29.45 182.39-29.45 182.39-19.85 197.89-19.85 197.89-14.4 182.39-14.4 182.39-2.15ZM219.89-2.15L232.04-2.15 232.04 0 201.84 0 201.84-2.15 213.99-2.15 213.99-29.55 203.39-29.55 203.39-34.95 230.49-34.95 230.49-29.55 219.89-29.55 219.89-2.15ZM272.38-2.15L284.43-2.15 284.43 0 265.78 0 258.43-23.95 258.03-23.95 250.68 0 232.03 0 232.03-2.15 244.08-2.15 232.63-34.95 238.98-34.95 247.78-9.8 255.58-34.95 260.88-34.95 268.68-9.8 277.48-34.95 283.83-34.95 272.38-2.15ZM320.58-2.15L326.38-2.15 326.38 0 315.23 0 311.73-7.95 294.23-7.95 290.73 0 279.58 0 279.58-2.15 285.38-2.15 299.83-34.95 306.13-34.95 320.58-2.15ZM296.63-13.4L309.33-13.4 302.98-27.8 296.63-13.4ZM354.33-2.15L359.18-2.15 359.18 0 348.38 0 340.03-11.75 332.28-11.75 332.28 0 321.53 0 321.53-2.15 326.38-2.15 326.38-34.95 339.38-34.95Q347.38-34.95 350.83-32.25 354.28-29.55 354.28-23.6L354.28-23.6Q354.28-14.95 346.73-12.7L346.73-12.7 354.33-2.15ZM339.63-17.1Q344.63-17.1 346.43-18.65 348.23-20.2 348.23-23.63 348.23-27.05 346.38-28.33 344.53-29.6 339.78-29.6L339.78-29.6 332.28-29.6 332.28-17.1 339.63-17.1ZM357.93-2.15L362.78-2.15 362.78-34.95 387.32-34.95 387.32-29.4 368.68-29.4 368.68-20.15 385.43-20.15 385.43-14.9 368.68-14.9 368.68-5.55 387.93-5.55 387.93-2.15 392.78-2.15 392.78 0 357.93 0 357.93-2.15Z" opacity="1" transform="matrix(1,0,0,1,0,0)" fill="#ffffff" class="undefined-text-0" data-fill-palette-color="primary" id="text-0"></path></svg></g></svg></g><g transform="matrix(1,0,0,1,0,20.0525030712831)"><svg viewBox="0 0 192 10.81437067209776" height="10.81437067209776" width="192"><g transform="matrix(1,0,0,1,0,0)"><svg width="192" viewBox="3 -37.5 887.7100219726562 50" height="10.81437067209776" data-palette-color="#ffffff"><path d="M3-37.5L20.65-37.5Q24.35-37.5 25.78-35.88 27.2-34.25 27.2-30.95L27.2-30.95 27.2-6.55Q27.2-3.1 25.6-1.55 24 0 20.65 0L20.65 0 3 0 3-3.4 6.15-3.4 6.15-34.1 3-34.1 3-37.5ZM23.1-3.4L23.1-34.1 10.25-34.1 10.25-3.4 23.1-3.4ZM94.41-3.65L94.41-20.1Q94.41-25.05 99.56-25.05L99.56-25.05 108.01-25.05Q110.46-25.05 111.56-24.1 112.66-23.15 112.66-20.6L112.66-20.6 112.66-15.95 98.41-6.95 98.41-3.4 108.71-3.4 108.71-6.3 112.66-6.3 112.66-3.65Q112.66-2.15 111.74-1.07 110.81 0 108.66 0L108.66 0 98.41 0Q96.26 0 95.34-1.07 94.41-2.15 94.41-3.65L94.41-3.65ZM98.41-21.6L98.41-11 108.66-17.45 108.66-21.6 98.41-21.6ZM177.87-25L187.07-25 187.07-21.6 184.62-21.6 189.62-3.4 194.72-21.6 192.27-21.6 192.27-25 201.52-25 201.52-21.6 198.52-21.6 192.47 0 186.92 0 180.82-21.6 177.87-21.6 177.87-25ZM266.73-3.65L266.73-20.1Q266.73-25.05 271.88-25.05L271.88-25.05 280.33-25.05Q282.78-25.05 283.88-24.1 284.98-23.15 284.98-20.6L284.98-20.6 284.98-15.95 270.73-6.95 270.73-3.4 281.03-3.4 281.03-6.3 284.98-6.3 284.98-3.65Q284.98-2.15 284.06-1.07 283.13 0 280.98 0L280.98 0 270.73 0Q268.58 0 267.66-1.07 266.73-2.15 266.73-3.65L266.73-3.65ZM270.73-21.6L270.73-11 280.98-17.45 280.98-21.6 270.73-21.6ZM358.94-37.5L358.94-3.4 362.19-3.4 362.19 0 351.69 0 351.69-3.4 354.84-3.4 354.84-34.1 351.69-34.1 351.69-37.5 358.94-37.5ZM442.3 0L433.05 0Q430.5 0 429.45-1.18 428.4-2.35 428.4-4.45L428.4-4.45 428.4-20.55Q428.4-22.55 429.33-23.78 430.25-25 433.05-25L433.05-25 442.3-25Q445.05-25 446-23.78 446.95-22.55 446.95-20.55L446.95-20.55 446.95-4.45Q446.95-2.35 445.9-1.18 444.85 0 442.3 0L442.3 0ZM432.45-21.6L432.45-3.4 442.9-3.4 442.9-21.6 432.45-21.6ZM519.91-15.3L519.91-3.4 530.51-3.4 530.51-21.95 519.91-15.3ZM512.71 12.5L512.71 9.1 515.81 9.1 515.81-21.55 512.66-21.55 512.66-25 519.91-25 519.91-19.3 528.56-24.75Q529.76-25.5 531.11-25.5 532.46-25.5 533.49-24.68 534.51-23.85 534.51-22.25L534.51-22.25 534.51-4.7Q534.51-2.4 533.86-1.55L533.86-1.55Q532.61 0 530.01 0L530.01 0 519.91 0 519.91 9.1 523.21 9.1 523.21 12.5 512.71 12.5ZM630.48-25.5L630.48-25.5Q634.38-25.5 634.38-21.65L634.38-21.65 634.38-3.4 637.58-3.4 637.58 0 627.93 0 627.93-3.4 630.33-3.4 630.33-22 621.18-16.3 621.18-3.4 623.63-3.4 623.63 0 614.68 0 614.68-3.4 617.08-3.4 617.13-3.6 617.13-22.05 607.93-16.3 607.93-3.4 610.38-3.4 610.38 0 600.73 0 600.73-3.4 603.88-3.4 603.88-21.65 600.73-21.65 600.73-25 607.93-25 607.93-20.25 615.48-25Q616.28-25.5 617.28-25.5L617.28-25.5Q621.18-25.5 621.18-21.65L621.18-21.65 621.18-20.3 628.68-25Q629.48-25.5 630.48-25.5ZM703.79-3.65L703.79-20.1Q703.79-25.05 708.94-25.05L708.94-25.05 717.39-25.05Q719.84-25.05 720.94-24.1 722.04-23.15 722.04-20.6L722.04-20.6 722.04-15.95 707.79-6.95 707.79-3.4 718.09-3.4 718.09-6.3 722.04-6.3 722.04-3.65Q722.04-2.15 721.11-1.07 720.19 0 718.04 0L718.04 0 707.79 0Q705.64 0 704.71-1.07 703.79-2.15 703.79-3.65L703.79-3.65ZM707.79-21.6L707.79-11 718.04-17.45 718.04-21.6 707.79-21.6ZM805.55-25.5L805.55-25.5Q809.45-25.5 809.45-21.65L809.45-21.65 809.45-3.4 812.65-3.4 812.65 0 803 0 803-3.4 805.4-3.4 805.4-22 795.45-15.75 795.45-3.4 797.9-3.4 797.9 0 788.25 0 788.25-3.4 791.4-3.4 791.4-21.65 788.25-21.65 788.25-25 795.45-25 795.45-19.8 803.75-25Q804.55-25.5 805.55-25.5ZM882.06-34.1L885.96-34.1 885.96-25 890.01-25 890.01-21.4 885.96-21.4 885.96-3.4 890.71-3.4 890.71 0 886.51 0Q884.26 0 883.16-1.18 882.06-2.35 882.06-5.2L882.06-5.2 882.06-21.4 878.36-21.4 878.36-25 882.06-25 882.06-34.1Z" opacity="1" transform="matrix(1,0,0,1,0,0)" fill="#ffffff" class="undefined-text-1" data-fill-palette-color="secondary" id="text-1"></path></svg></g></svg></g></svg></g></svg></g><g></g></svg></g></svg></g></svg></g></svg></g><defs></defs></svg><rect width="320" height="360" fill="none" stroke="none" visibility="hidden"></rect></g></svg></g></svg>